<svg xmlns="http://www.w3.org/2000/svg" xmlns:xlink="http://www.w3.org/1999/xlink" width="1920" height="3945" viewBox="0 0 1920 3945"><defs><clipPath id="b"><rect width="1920" height="3945"/></clipPath></defs><g id="a" clip-path="url(#b)"><rect width="1920" height="3945" fill="#fff"/><g style="isolation:isolate"><g fill="#212529" stroke="#707070" stroke-width="1"><rect width="1920" height="82" stroke="none"/><rect x="0.5" y="0.5" width="1919" height="81" fill="none"/></g></g><g transform="translate(85 15)" fill="#fff" stroke="#000" stroke-width="1"><rect width="60" height="60" rx="17" stroke="none"/><rect x="0.5" y="0.5" width="59" height="59" rx="16.5" fill="none"/></g><g transform="translate(160 15)" fill="#fff"><path d="M 349.5 59.5 L 0.5 59.5 L 0.5 0.5 L 349.5 0.5 L 349.5 59.5 Z" stroke="none"/><path d="M 1 1 L 1 59 L 349 59 L 349 1 L 1 1 M 0 0 L 350 0 L 350 60 L 0 60 L 0 0 Z" stroke="none" fill="#000"/></g><g transform="translate(1300 15)" fill="#fff" stroke="#000" stroke-width="1"><rect width="500" height="60" stroke="none"/><rect x="0.5" y="0.5" width="499" height="59" fill="none"/></g><g transform="translate(0 82)" fill="#212529" stroke="#707070" stroke-width="1"><rect width="1920" height="450" stroke="none"/><rect x="0.5" y="0.5" width="1919" height="449" fill="none"/></g><g transform="translate(85 100)" fill="#fff" stroke="#707070" stroke-width="1"><rect width="425" height="400" rx="28" stroke="none"/><rect x="0.5" y="0.5" width="424" height="399" rx="27.5" fill="none"/></g><g transform="translate(748 100)" fill="#fff" stroke="#707070" stroke-width="1"><rect width="425" height="400" rx="28" stroke="none"/><rect x="0.5" y="0.5" width="424" height="399" rx="27.5" fill="none"/></g><g transform="translate(1411 100)" fill="#fff" stroke="#707070" stroke-width="1"><rect width="425" height="400" rx="28" stroke="none"/><rect x="0.5" y="0.5" width="424" height="399" rx="27.5" fill="none"/></g><g transform="translate(0 532)" fill="#0d6efd" stroke="#707070" stroke-width="1"><rect width="1920" height="1065" stroke="none"/><rect x="0.5" y="0.5" width="1919" height="1064" fill="none"/></g><g transform="translate(85 572)" fill="#fff" stroke="#707070" stroke-width="1"><rect width="1751" height="376" rx="26" stroke="none"/><rect x="0.5" y="0.5" width="1750" height="375" rx="25.5" fill="none"/></g><g transform="translate(124 880)" fill="#0d6efd" stroke="#707070" stroke-width="1"><rect width="246" height="50" rx="14" stroke="none"/><rect x="0.5" y="0.5" width="245" height="49" rx="13.5" fill="none"/></g><g transform="translate(774 958)" fill="#fff" stroke="#707070" stroke-width="1"><rect width="372" height="585" rx="23" stroke="none"/><rect x="0.5" y="0.5" width="371" height="584" rx="22.5" fill="none"/></g><g transform="translate(112 958)" fill="#fff" stroke="#707070" stroke-width="1"><rect width="372" height="585" rx="23" stroke="none"/><rect x="0.5" y="0.5" width="371" height="584" rx="22.5" fill="none"/></g><g transform="translate(1436 958)" fill="#fff" stroke="#707070" stroke-width="1"><rect width="372" height="585" rx="23" stroke="none"/><rect x="0.5" y="0.5" width="371" height="584" rx="22.5" fill="none"/></g><g transform="translate(137 1446)" fill="#0d6efd" stroke="#707070" stroke-width="1"><rect width="132" height="64" rx="16" stroke="none"/><rect x="0.5" y="0.5" width="131" height="63" rx="15.5" fill="none"/></g><g transform="translate(801 1446)" fill="#0d6efd" stroke="#707070" stroke-width="1"><rect width="132" height="64" rx="16" stroke="none"/><rect x="0.5" y="0.5" width="131" height="63" rx="15.5" fill="none"/></g><g transform="translate(1462 1446)" fill="#0d6efd" stroke="#707070" stroke-width="1"><rect width="132" height="64" rx="16" stroke="none"/><rect x="0.5" y="0.5" width="131" height="63" rx="15.5" fill="none"/></g><g transform="translate(0 1597)" fill="#ffc107" stroke="#707070" stroke-width="1"><rect width="1920" height="1766" stroke="none"/><rect x="0.5" y="0.5" width="1919" height="1765" fill="none"/></g><g transform="translate(85 1622)" fill="#fff" stroke="#707070" stroke-width="1"><rect width="1751" height="376" rx="26" stroke="none"/><rect x="0.5" y="0.5" width="1750" height="375" rx="25.5" fill="none"/></g><g transform="translate(85 2165)" fill="#fff" stroke="#707070" stroke-width="1"><rect width="729" height="415" rx="30" stroke="none"/><rect x="0.5" y="0.5" width="728" height="414" rx="29.5" fill="none"/></g><g transform="translate(960 2073)" fill="#fff" stroke="#707070" stroke-width="1"><rect width="876" height="507" stroke="none"/><rect x="0.5" y="0.5" width="875" height="506" fill="none"/></g><g transform="translate(960 2605)" fill="#0d6efd" stroke="#707070" stroke-width="1"><rect width="162" height="77" rx="17" stroke="none"/><rect x="0.5" y="0.5" width="161" height="76" rx="16.5" fill="none"/></g><g transform="translate(1107 2799)" fill="#fff" stroke="#707070" stroke-width="1"><rect width="729" height="415" rx="30" stroke="none"/><rect x="0.5" y="0.5" width="728" height="414" rx="29.5" fill="none"/></g><g transform="translate(84 2707)" fill="#fff" stroke="#707070" stroke-width="1"><rect width="876" height="507" stroke="none"/><rect x="0.5" y="0.5" width="875" height="506" fill="none"/></g><g transform="translate(84 3239)" fill="#0d6efd" stroke="#707070" stroke-width="1"><rect width="162" height="77" rx="17" stroke="none"/><rect x="0.5" y="0.5" width="161" height="76" rx="16.5" fill="none"/></g><g transform="translate(0 3363)" fill="#212529" stroke="#707070" stroke-width="1"><rect width="1920" height="582" stroke="none"/><rect x="0.5" y="0.5" width="1919" height="581" fill="none"/></g><g transform="translate(690 3493)" fill="#fff" stroke="#707070" stroke-width="1"><rect width="541" height="75" stroke="none"/><rect x="0.5" y="0.5" width="540" height="74" fill="none"/></g><g transform="translate(786 3668)" fill="#fff" stroke="#707070" stroke-width="1"><rect width="349" height="116" stroke="none"/><rect x="0.5" y="0.5" width="348" height="115" fill="none"/></g><line x1="52" y1="60" transform="translate(85.5 15.5)" fill="none" stroke="#707070" stroke-width="1"/><line y1="60" x2="60" transform="translate(85.5 15.5)" fill="none" stroke="#707070" stroke-width="1"/><line x2="541" y2="75" transform="translate(690.5 3493.5)" fill="none" stroke="#707070" stroke-width="1"/><line y1="75" x2="541" transform="translate(690.5 3493.5)" fill="none" stroke="#707070" stroke-width="1"/><line x2="349" y2="116" transform="translate(786.5 3668.5)" fill="none" stroke="#707070" stroke-width="1"/><line x1="349" y2="116" transform="translate(786.5 3668.5)" fill="none" stroke="#707070" stroke-width="1"/><line x2="247" y2="50" transform="translate(124.5 880.5)" fill="none" stroke="#707070" stroke-width="1"/><line x1="246" y2="50" transform="translate(124.5 880.5)" fill="none" stroke="#707070" stroke-width="1"/><line x2="132" y2="64" transform="translate(137.5 1446.5)" fill="none" stroke="#707070" stroke-width="1"/><line x1="132" y2="64" transform="translate(137.5 1446.5)" fill="none" stroke="#707070" stroke-width="1"/><line x2="132" y2="64" transform="translate(801.5 1446.5)" fill="none" stroke="#707070" stroke-width="1"/><line x1="132" y2="64" transform="translate(801.5 1446.5)" fill="none" stroke="#707070" stroke-width="1"/><line x2="132" y2="64" transform="translate(1462.5 1446.5)" fill="none" stroke="#707070" stroke-width="1"/><line x1="132" y2="64" transform="translate(1462.5 1446.5)" fill="none" stroke="#707070" stroke-width="1"/><line x2="162" y2="77" transform="translate(960.5 2605.5)" fill="none" stroke="#707070" stroke-width="1"/><line x1="162" y2="77" transform="translate(960.5 2605.5)" fill="none" stroke="#707070" stroke-width="1"/><line x2="163" y2="77" transform="translate(84.5 3239.5)" fill="none" stroke="#707070" stroke-width="1"/><line x1="162" y2="77" transform="translate(84.5 3239.5)" fill="none" stroke="#707070" stroke-width="1"/></g></svg>